<?xml version="1.0" standalone="no"?>
<!DOCTYPE svg PUBLIC "-//W3C//DTD SVG 20010904//EN"
 "http://www.w3.org/TR/2001/REC-SVG-20010904/DTD/svg10.dtd">
<svg version="1.0" xmlns="http://www.w3.org/2000/svg"
 width="2000.000000pt" height="1500.000000pt" viewBox="0 0 2000.000000 1500.000000"
 preserveAspectRatio="xMidYMid meet">

<g transform="translate(0.000000,1500.000000) scale(0.100000,-0.100000)"
fill="#000000" stroke="none">
<path d="M3300 8704 c-177 -38 -325 -169 -364 -321 l-12 -48 -202 -3 -202 -2
0 -1025 0 -1025 900 0 900 0 0 1025 0 1025 -204 0 -203 0 -6 34 c-10 62 -59
148 -116 205 -124 123 -310 175 -491 135z m235 -99 c123 -32 226 -119 266
-224 90 -239 -164 -489 -450 -441 -193 32 -321 159 -329 327 -4 60 0 80 21
126 80 175 288 264 492 212z m-599 -433 c40 -154 198 -292 373 -324 l61 -12 0
-728 0 -728 -377 2 -378 3 -3 910 c-1 501 0 916 3 923 3 10 40 12 156 10 l152
-3 13 -53z m1284 -867 l0 -925 -375 0 -375 0 0 728 0 728 63 13 c177 36 341
182 372 331 4 19 9 38 12 43 2 4 71 7 154 7 l149 0 0 -925z"/>
<path d="M3612 7483 l3 -48 243 -3 242 -2 0 50 0 50 -246 0 -245 0 3 -47z"/>
<path d="M4720 8678 c-19 -42 -20 -72 -20 -1178 0 -1106 1 -1136 20 -1178 17
-38 23 -43 47 -40 19 2 33 14 48 38 20 35 20 44 20 1180 0 1136 0 1145 -20
1180 -15 24 -29 36 -48 38 -24 3 -30 -2 -47 -40z"/>
<path d="M8975 8714 c-11 -2 -45 -9 -75 -15 -30 -6 -93 -29 -139 -51 -165 -79
-291 -245 -326 -431 -21 -108 -21 -466 0 -572 44 -234 215 -416 450 -481 79
-22 527 -32 648 -14 286 42 493 245 536 527 15 101 13 431 -3 523 -43 241
-197 415 -431 491 -65 21 -90 23 -355 25 -157 1 -294 1 -305 -2z m637 -312
c76 -37 120 -82 157 -162 26 -55 26 -56 26 -310 0 -255 0 -255 -26 -311 -15
-32 -46 -76 -69 -99 -23 -23 -67 -54 -99 -69 -56 -26 -58 -26 -329 -29 -305
-4 -340 1 -428 60 -63 43 -109 105 -131 176 -15 47 -18 95 -18 282 1 208 3
229 23 281 38 96 113 167 213 203 37 13 91 15 329 13 l285 -2 67 -33z"/>
<path d="M5510 8686 c-160 -35 -267 -159 -292 -338 -6 -43 -8 -237 -6 -478 4
-389 5 -407 26 -460 43 -110 110 -173 231 -222 55 -22 63 -23 599 -26 l542 -3
0 140 0 141 -520 0 c-565 0 -563 0 -588 55 -9 19 -12 139 -12 436 0 446 1 459
56 479 15 6 238 10 545 10 l519 0 0 140 0 140 -522 -1 c-373 0 -539 -4 -578
-13z"/>
<path d="M6880 7980 c0 -795 -3 -762 63 -797 29 -17 83 -18 685 -21 l652 -3 0
141 0 140 -565 0 -565 0 0 630 0 630 -135 0 -135 0 0 -720z"/>
<path d="M10220 8560 l0 -140 305 0 305 0 0 -630 0 -631 138 3 137 3 3 628 2
627 305 0 305 0 0 140 0 140 -750 0 -750 0 0 -140z"/>
<path d="M11930 7930 l0 -771 138 3 137 3 3 313 2 312 490 0 490 0 0 -315 0
-315 135 0 135 0 0 770 0 770 -135 0 -135 0 0 -315 0 -315 -490 0 -490 0 0
315 0 315 -140 0 -140 0 0 -770z"/>
<path d="M13800 7930 l0 -770 135 0 135 0 0 770 0 770 -135 0 -135 0 0 -770z"/>
<path d="M14496 8690 c-15 -5 -37 -17 -48 -27 -48 -43 -48 -37 -48 -793 l0
-710 135 0 135 0 0 630 0 630 560 0 560 0 0 140 0 140 -632 -1 c-348 0 -646
-5 -662 -9z"/>
<path d="M15950 8402 c0 -322 5 -363 56 -464 38 -74 78 -121 143 -166 105 -73
205 -102 346 -102 l85 0 0 -255 0 -255 135 0 135 0 0 254 0 253 118 5 c136 6
216 31 311 98 67 47 107 94 145 168 51 101 56 142 56 464 l0 298 -134 0 -134
0 -4 -298 -3 -299 -30 -48 c-21 -35 -45 -56 -80 -74 l-49 -26 -316 -3 c-211
-2 -327 0 -353 8 -48 14 -102 62 -130 114 -21 39 -22 55 -25 334 l-3 292 -135
0 -134 0 0 -298z"/>
<path d="M14790 7930 l0 -140 440 0 440 0 0 140 0 140 -440 0 -440 0 0 -140z"/>
<path d="M5870 6762 c-1 -4 0 -84 0 -179 1 -157 -1 -172 -17 -176 -10 -3 5 -5
32 -5 28 0 42 2 33 5 -16 4 -18 21 -18 178 0 144 -2 174 -15 179 -8 3 -15 2
-15 -2z"/>
<path d="M6718 6598 c3 -155 2 -174 -14 -185 -15 -11 -11 -13 32 -12 27 1 41
3 32 6 -16 4 -18 21 -18 172 0 157 -5 191 -29 191 -4 0 -5 -77 -3 -172z"/>
<path d="M9040 6762 c-1 -4 0 -84 0 -179 1 -157 -1 -172 -17 -176 -10 -3 5 -5
32 -5 28 0 42 2 33 5 -16 4 -18 21 -18 178 0 144 -2 174 -15 179 -8 3 -15 2
-15 -2z"/>
<path d="M10260 6591 c0 -163 -2 -180 -17 -184 -10 -3 7 -5 37 -4 30 0 45 2
33 4 -23 4 -23 6 -22 174 0 93 -3 174 -6 179 -20 32 -25 -6 -25 -169z"/>
<path d="M10990 6762 c-1 -4 0 -84 0 -179 1 -157 -1 -172 -17 -176 -10 -3 5
-5 32 -5 28 0 42 2 33 5 -16 4 -18 21 -18 178 0 144 -2 174 -15 179 -8 3 -15
2 -15 -2z"/>
<path d="M11538 6591 c3 -165 1 -180 -15 -184 -10 -3 7 -5 37 -4 30 0 45 2 33
4 -23 4 -23 6 -22 174 0 171 -2 189 -24 189 -9 0 -11 -46 -9 -179z"/>
<path d="M11990 6763 c-47 -17 -50 -28 -50 -194 0 -142 -2 -158 -17 -162 -10
-3 7 -5 37 -4 30 0 45 2 32 4 -22 4 -22 6 -21 156 1 84 5 160 11 170 5 10 19
22 31 27 24 9 2 12 -23 3z"/>
<path d="M9990 6730 c0 -15 5 -20 18 -18 9 2 17 10 17 18 0 8 -8 16 -17 18
-13 2 -18 -3 -18 -18z"/>
<path d="M11817 6744 c-9 -10 4 -34 19 -34 8 0 14 9 14 20 0 19 -19 27 -33 14z"/>
<path d="M5226 6732 c7 -4 13 -55 16 -127 6 -146 19 -178 78 -196 54 -16 107
-3 134 34 18 25 21 45 24 157 3 110 6 130 20 133 10 3 -3 5 -28 4 -25 0 -34
-2 -22 -4 24 -5 24 -5 20 -131 -4 -135 -12 -161 -55 -181 -40 -18 -73 -13
-104 18 l-29 29 0 130 c0 95 3 132 13 135 6 3 -8 6 -33 6 -25 0 -40 -3 -34 -7z"/>
<path d="M7132 6728 c8 -7 38 -56 67 -109 44 -83 51 -104 51 -152 0 -44 -3
-56 -17 -60 -10 -3 5 -5 32 -5 28 0 42 2 32 5 -16 4 -18 13 -15 68 2 35 0 61
-4 59 -5 -3 -98 178 -98 192 0 1 8 5 18 7 9 3 -5 5 -32 6 -41 1 -47 -1 -34
-11z"/>
<path d="M7342 6733 l27 -4 -35 -77 c-52 -113 -51 -119 2 -17 25 50 52 93 58
97 6 4 -9 7 -34 6 -28 0 -35 -3 -18 -5z"/>
<path d="M8345 6716 c-31 -31 -34 -85 -6 -110 10 -9 45 -27 77 -39 64 -25 83
-52 70 -100 -7 -29 -51 -57 -88 -57 -29 0 -67 25 -79 54 -8 18 -8 17 -6 -9 2
-25 8 -32 42 -44 49 -17 102 -9 139 20 21 16 26 29 26 63 0 53 -18 72 -103
106 -56 23 -62 28 -65 57 -6 65 81 100 129 52 l21 -21 -4 24 c-3 21 -9 23 -65
26 -56 3 -66 0 -88 -22z"/>
<path d="M10788 6733 c7 -3 16 -2 19 1 4 3 -2 6 -13 5 -11 0 -14 -3 -6 -6z"/>
<path d="M10867 6725 c22 -9 33 -22 36 -42 3 -24 4 -23 6 8 1 39 -10 49 -52
49 -18 -1 -16 -3 10 -15z"/>
<path d="M12390 6609 c0 -84 4 -128 10 -124 6 4 10 58 10 131 0 76 -4 124 -10
124 -6 0 -10 -50 -10 -131z"/>
<path d="M10722 6701 c-47 -48 -64 -147 -38 -221 19 -53 67 -80 135 -78 l56 2
-56 3 c-43 3 -61 9 -79 28 -28 30 -43 97 -34 160 7 56 17 80 47 113 30 33 3
27 -31 -7z"/>
<path d="M8579 6668 c0 -13 0 -70 1 -128 1 -93 3 -107 22 -122 11 -10 32 -18
47 -18 25 1 25 1 -6 15 l-33 14 0 131 c0 109 -2 130 -15 130 -9 0 -15 -10 -16
-22z"/>
<path d="M10100 6561 c0 -141 2 -147 61 -156 31 -5 32 -5 9 5 -13 6 -28 16
-32 23 -4 7 -8 67 -8 135 0 102 -2 122 -15 122 -13 0 -15 -21 -15 -129z"/>
<path d="M11380 6567 c0 -138 6 -154 60 -162 32 -5 33 -5 10 5 -13 6 -28 16
-32 23 -4 7 -8 67 -8 135 0 102 -2 122 -15 122 -13 0 -15 -20 -15 -123z"/>
<path d="M5690 6641 c0 -6 7 -11 15 -11 24 0 35 -43 35 -135 0 -71 -3 -84 -17
-88 -10 -3 5 -5 32 -5 28 0 42 2 33 5 -16 4 -18 17 -18 98 0 74 -4 97 -17 113
-21 23 -63 39 -63 23z"/>
<path d="M6063 6643 c-12 -2 -36 -20 -53 -39 -25 -30 -30 -43 -30 -89 0 -78
27 -107 101 -110 35 -1 39 -1 12 2 -51 5 -83 39 -83 89 l0 34 85 0 85 0 0 31
c0 43 -15 65 -51 78 -18 6 -35 10 -38 10 -3 -1 -16 -4 -28 -6z m65 -20 c11
-10 23 -33 27 -50 l7 -33 -76 0 c-81 0 -87 4 -62 49 13 24 51 50 72 51 7 0 21
-8 32 -17z"/>
<path d="M6341 6635 c17 -9 29 -26 33 -46 11 -57 8 -67 -21 -72 l-28 -4 28 -2
c24 -1 27 -5 27 -39 0 -30 -5 -42 -22 -51 -22 -11 -22 -11 -1 -6 12 3 24 1 28
-5 3 -5 18 -9 33 -9 17 1 21 3 10 6 -15 4 -18 17 -18 88 0 103 -9 129 -51 144
-43 15 -50 13 -18 -4z"/>
<path d="M6540 6643 c-30 -11 -50 -37 -50 -63 0 -32 13 -45 65 -63 51 -18 68
-44 52 -77 -24 -48 -112 -35 -120 17 -4 26 -4 26 -6 -4 -1 -37 19 -53 68 -53
47 0 80 17 92 47 14 37 -12 70 -71 92 -33 12 -46 23 -48 39 -4 26 13 50 43 62
22 10 -1 12 -25 3z"/>
<path d="M6820 6643 c0 -4 10 -13 23 -18 20 -9 22 -17 25 -109 2 -73 -1 -102
-10 -108 -8 -4 8 -7 37 -6 28 0 40 3 28 5 -22 4 -23 9 -23 107 0 71 -4 107
-13 114 -17 15 -67 26 -67 15z"/>
<path d="M7498 6643 c7 -3 16 -2 19 1 4 3 -2 6 -13 5 -11 0 -14 -3 -6 -6z"/>
<path d="M9234 6643 c-12 -2 -34 -18 -50 -34 -26 -27 -29 -37 -29 -94 0 -84
20 -107 97 -110 37 -2 40 -1 11 2 -51 5 -83 39 -83 89 l0 34 85 0 85 0 0 31
c0 43 -15 65 -51 78 -18 6 -35 10 -38 10 -3 -1 -16 -4 -27 -6z m65 -20 c11
-10 24 -33 27 -50 l7 -33 -77 0 c-42 0 -76 3 -76 6 0 20 34 73 53 82 31 15 42
14 66 -5z"/>
<path d="M10370 6641 c0 -6 7 -11 15 -11 24 0 35 -43 35 -135 0 -71 -3 -84
-17 -88 -10 -3 5 -5 32 -5 28 0 42 2 33 5 -16 4 -18 17 -18 98 0 74 -4 97 -17
113 -21 23 -63 39 -63 23z"/>
<path d="M11208 6643 c7 -3 16 -2 19 1 4 3 -2 6 -13 5 -11 0 -14 -3 -6 -6z"/>
<path d="M11650 6641 c0 -6 7 -11 15 -11 25 0 35 -36 35 -129 0 -77 -2 -90
-17 -94 -10 -3 5 -5 32 -5 28 0 42 2 33 5 -16 4 -18 18 -18 102 0 81 -3 101
-17 113 -24 21 -63 32 -63 19z"/>
<path d="M5573 6634 c15 -5 17 -19 17 -109 0 -89 -3 -106 -17 -114 -14 -8 -6
-10 32 -10 28 1 42 3 33 6 -15 4 -18 20 -20 116 l-3 112 -30 2 c-16 1 -22 -1
-12 -3z"/>
<path d="M6253 6630 c-17 -7 -23 -17 -22 -37 1 -22 3 -24 6 -6 2 11 19 28 36
37 34 16 18 21 -20 6z"/>
<path d="M6602 6628 c9 -7 18 -22 21 -33 3 -13 5 -8 6 13 1 27 -3 32 -21 32
-19 0 -20 -1 -6 -12z"/>
<path d="M6788 6633 c7 -3 16 -2 19 1 4 3 -2 6 -13 5 -11 0 -14 -3 -6 -6z"/>
<path d="M7425 6610 c-22 -23 -29 -41 -33 -85 -4 -52 -3 -56 31 -90 27 -27 43
-35 71 -35 73 0 126 54 126 130 0 55 -40 110 -82 110 -7 0 -3 -7 9 -15 70 -49
42 -215 -37 -215 -42 0 -59 9 -75 41 -29 56 -12 153 32 178 15 9 15 10 2 11
-8 0 -28 -13 -44 -30z"/>
<path d="M7690 6534 c6 -118 15 -135 74 -133 22 1 25 3 11 6 -47 12 -55 30
-55 135 0 87 -2 98 -17 98 -16 0 -18 -10 -13 -106z"/>
<path d="M7840 6539 c0 -85 -3 -104 -17 -115 -16 -12 -16 -12 5 -7 13 3 22 1
22 -6 0 -6 15 -11 33 -10 17 0 25 3 17 6 -26 10 -30 26 -30 131 0 84 -3 102
-15 102 -12 0 -15 -18 -15 -101z"/>
<path d="M7963 6633 c15 -4 17 -18 17 -113 0 -95 -2 -109 -17 -113 -10 -3 7
-5 37 -4 30 0 45 2 33 4 -22 4 -23 9 -23 88 0 79 1 85 27 105 16 13 37 20 50
17 13 -2 24 2 27 9 10 26 -49 16 -78 -12 l-26 -27 0 27 c0 23 -4 26 -32 25
-18 -1 -25 -3 -15 -6z"/>
<path d="M8767 6543 c19 -54 41 -111 49 -127 10 -20 12 -45 8 -77 -6 -42 -10
-48 -33 -52 -14 -2 -1 -4 29 -4 30 0 45 2 33 4 -13 3 -23 12 -23 21 1 22 15
91 25 117 5 16 5 17 -3 5 -13 -17 -17 -8 -57 124 -21 68 -30 86 -45 86 -17 0
-15 -8 17 -97z"/>
<path d="M8898 6548 c-20 -51 -36 -94 -34 -95 1 -2 20 36 41 84 22 49 44 91
50 95 6 5 4 8 -5 8 -10 0 -28 -34 -52 -92z"/>
<path d="M9604 6520 c23 -66 46 -120 53 -120 16 0 28 21 16 29 -11 6 -63 168
-63 195 0 10 -9 16 -23 16 l-23 0 40 -120z"/>
<path d="M9710 6544 c-18 -52 -30 -97 -28 -100 3 -2 16 27 29 66 13 38 26 70
29 70 3 0 16 -39 30 -87 16 -54 31 -89 40 -91 11 -2 28 32 59 112 23 63 48
117 55 120 6 2 2 5 -9 5 -17 1 -25 -15 -49 -95 -44 -142 -47 -143 -80 -14 -16
60 -32 110 -37 110 -4 0 -22 -43 -39 -96z"/>
<path d="M9973 6633 c15 -4 17 -18 17 -113 0 -95 -2 -109 -17 -113 -10 -3 7
-5 37 -4 30 0 45 2 33 4 -22 4 -23 8 -23 119 l0 114 -32 -1 c-18 -1 -25 -3
-15 -6z"/>
<path d="M10338 6633 c7 -3 16 -2 19 1 4 3 -2 6 -13 5 -11 0 -14 -3 -6 -6z"/>
<path d="M11144 6622 c-31 -25 -44 -55 -44 -102 0 -76 41 -120 111 -120 101 0
156 144 84 216 -13 13 -32 24 -42 24 -15 0 -14 -2 4 -15 49 -34 53 -146 7
-192 -38 -38 -95 -30 -119 18 -29 56 -12 153 32 178 14 8 15 10 3 10 -8 1 -25
-7 -36 -17z"/>
<path d="M11618 6633 c7 -3 16 -2 19 1 4 3 -2 6 -13 5 -11 0 -14 -3 -6 -6z"/>
<path d="M11803 6633 c15 -4 17 -18 17 -113 0 -95 -2 -109 -17 -113 -10 -3 5
-5 32 -5 28 0 42 2 33 5 -16 4 -18 18 -18 119 l0 114 -32 -1 c-18 -1 -25 -3
-15 -6z"/>
<path d="M12087 6628 c5 -7 27 -61 47 -120 21 -60 42 -108 48 -108 5 0 7 -8 5
-17 -3 -10 -8 -35 -11 -55 -5 -27 -12 -38 -29 -41 -12 -2 1 -4 28 -4 28 0 40
2 27 4 -17 3 -21 9 -17 29 3 13 7 36 10 52 3 15 8 35 12 46 3 10 1 16 -4 13
-6 -4 -25 43 -44 103 -31 99 -36 110 -58 110 -17 0 -21 -3 -14 -12z"/>
<path d="M12282 6634 c3 -3 -12 -46 -33 -96 -21 -50 -37 -93 -35 -95 2 -2 13
20 26 49 12 29 33 74 45 101 20 40 21 47 7 47 -8 0 -13 -3 -10 -6z"/>
<path d="M6260 6503 c-19 -7 -40 -33 -40 -50 0 -27 39 -53 78 -52 34 2 34 2 7
6 -16 3 -36 9 -42 15 -18 15 -16 48 4 70 17 19 17 20 -7 11z"/>
<path d="M12385 6421 c-7 -12 12 -24 25 -16 11 7 4 25 -10 25 -5 0 -11 -4 -15
-9z"/>
</g>
</svg>
